<svg width="719" height="752" viewBox="0 0 719 752" fill="none" xmlns="http://www.w3.org/2000/svg">
<path d="M718.768 430.508L526.105 189.75C517.357 197.751 506.578 203.193 494.946 205.483C458.675 212.626 423.254 187.857 415.829 150.16C410.581 123.512 420.741 97.5523 439.952 82.0915L374.259 0L0 319.862L344.509 750.37L718.768 430.508Z" fill="#FFDF8D"/>
<path d="M479.377 194.045C509.374 194.045 533.692 169.727 533.692 139.729C533.692 109.732 509.374 85.4142 479.377 85.4142C449.379 85.4142 425.061 109.732 425.061 139.729C425.061 169.727 449.379 194.045 479.377 194.045Z" fill="#FFDF8D"/>
<path d="M156.884 109.38H397.5C409.111 109.38 420.376 113.33 429.444 120.581C438.513 127.833 444.844 137.954 447.397 149.28L568.976 688.547C570.302 694.429 570.325 700.53 569.044 706.422C567.763 712.314 565.209 717.855 561.56 722.655C557.912 727.456 553.257 731.4 547.923 734.211C542.589 737.023 536.704 738.633 530.682 738.93L283.328 751.117C270.082 751.77 257.052 747.581 246.669 739.332C236.285 731.084 229.258 719.339 226.897 706.289L157.931 325.022L152.8 326.488L139.604 254.223L144.885 252.903L125.634 146.477C124.809 141.919 125.001 137.234 126.194 132.758C127.387 128.282 129.554 124.125 132.538 120.582C135.522 117.039 139.252 114.198 143.46 112.262C147.668 110.325 152.252 109.341 156.884 109.38V109.38Z" fill="#3F3D56"/>
<path d="M365.823 121.005H393.91C401.976 121.005 409.8 123.763 416.082 128.823C422.364 133.882 426.727 140.938 428.446 148.818L545.145 683.686C545.817 686.765 545.816 689.954 545.143 693.033C544.47 696.112 543.14 699.01 541.244 701.528C539.349 704.046 536.932 706.125 534.159 707.624C531.386 709.123 528.323 710.005 525.177 710.211L278.623 726.37C271.667 726.826 264.787 724.705 259.296 720.411C253.805 716.118 250.086 709.953 248.85 703.093L149.271 150.255C148.626 146.677 148.775 143.001 149.706 139.486C150.638 135.972 152.329 132.704 154.661 129.915C156.993 127.126 159.909 124.882 163.202 123.342C166.496 121.803 170.087 121.005 173.723 121.005H200.368C202.947 121.005 205.454 121.855 207.501 123.424C209.548 124.992 211.02 127.192 211.691 129.682C212.283 131.881 213.583 133.823 215.39 135.207C217.197 136.592 219.41 137.343 221.687 137.343H348.18C352.638 137.343 356.932 135.66 360.203 132.631C363.474 129.602 365.481 125.45 365.823 121.005L365.823 121.005Z" fill="#4AB8B9"/>
<path d="M444.371 259.25H189.246V260.507H444.371V259.25Z" fill="#2F2E41"/>
<path d="M454.425 300.095H196.787V301.352H454.425V300.095Z" fill="#2F2E41"/>
<path d="M205.357 257.26L211.154 249.531L210.149 248.777L205.139 255.457L185.833 239.661L185.038 240.635L205.357 257.26Z" fill="#2F2E41"/>
<path d="M238.662 439.492L244.459 431.763L243.454 431.01L238.443 437.689L219.137 421.894L218.342 422.867L238.662 439.492Z" fill="#2F2E41"/>
<path d="M482.69 439.597L215.625 445.253L215.652 446.509L482.716 440.854L482.69 439.597Z" fill="#2F2E41"/>
<path d="M490.857 476.672L218.766 482.956L218.795 484.213L490.886 477.929L490.857 476.672Z" fill="#2F2E41"/>
<path opacity="0.1" d="M324.035 583.812C324.035 599.645 330.325 614.829 341.52 626.024C352.715 637.219 367.899 643.509 383.732 643.509C399.565 643.509 414.749 637.219 425.944 626.024C437.139 614.829 443.429 599.645 443.429 583.812C443.429 583.064 443.416 582.323 443.385 581.581C442.801 565.953 436.107 551.178 424.743 540.434C413.379 529.689 398.252 523.833 382.615 524.126C366.979 524.418 352.081 530.835 341.127 541.996C330.172 553.158 324.035 568.173 324.035 583.812H324.035Z" fill="black"/>
<path opacity="0.1" d="M329.691 607.062C329.691 607.81 329.703 608.552 329.735 609.293C335.525 621.56 345.321 631.488 357.507 637.445C369.694 643.401 383.546 645.03 396.782 642.064C410.018 639.097 421.849 631.712 430.328 621.124C438.807 610.536 443.427 597.377 443.429 583.812C443.429 583.064 443.416 582.323 443.385 581.581C437.594 569.315 427.799 559.386 415.612 553.43C403.426 547.474 389.574 545.844 376.338 548.811C363.102 551.777 351.27 559.163 342.792 569.751C334.313 580.339 329.692 593.498 329.691 607.062H329.691Z" fill="black"/>
</svg>
