<svg width="555" height="387" viewBox="0 0 555 387" fill="none" xmlns="http://www.w3.org/2000/svg">
<g clip-path="url(#clip0)">
<path d="M161.185 336.515C161.049 352.076 159.908 367.612 157.77 383.027C157.696 383.568 157.614 384.109 157.539 384.651L11.6981 383.836C11.2699 383.299 10.8485 382.755 10.4401 382.204C9.07851 380.382 7.80238 378.508 6.63089 376.57C1.00018 367.231 -1.57762 356.297 1.00559 348.753L1.05184 348.636C1.60946 346.984 2.48814 345.458 3.63743 344.147C9.52708 337.522 21.4354 338.626 32.2419 343.973C22.5491 333.372 14.8312 319.994 14.2448 308.053C13.6698 296.405 19.7648 288.085 26.3755 281.014C26.5924 280.78 26.8093 280.553 27.0261 280.326C27.1314 280.209 27.243 280.099 27.348 279.982C32.5057 274.593 38.5188 269.281 47.2224 269.924C56.7679 270.63 67.3511 278.619 74.7715 287.929C82.192 297.232 87.1231 307.8 92.1213 318.115C97.126 328.423 102.541 338.994 110.571 347.805C99.6942 334.057 90.9242 318.415 87.6847 303.202C84.4451 287.989 87.2961 273.378 96.9903 266.213C99.9333 264.105 103.339 262.732 106.922 262.209C107.34 262.14 107.765 262.083 108.196 262.033C117.171 261.013 127.885 264.115 137.002 271.528C147.041 279.69 154.002 291.791 157.465 303.278C160.928 314.766 161.297 325.825 161.185 336.515Z" fill="#FFDF8D"/>
<path d="M65.7679 384.138L62.9792 384.123C62.0937 383.57 61.204 383.023 60.3101 382.483C59.7568 382.134 59.197 381.798 58.637 381.455C49.3866 375.81 40.0785 370.395 30.7125 365.21C21.355 360.021 11.9505 355.071 2.49888 350.36C2.24834 350.251 2.04395 350.058 1.9212 349.814C1.79845 349.57 1.76511 349.291 1.82699 349.025C1.83712 348.99 1.85281 348.957 1.87347 348.927C2.0053 348.68 2.29994 348.577 2.72996 348.789C3.88926 349.37 5.05526 349.95 6.21448 350.544C15.6919 355.336 25.1286 360.366 34.5247 365.636C43.9142 370.904 53.2503 376.404 62.5329 382.136C62.7281 382.255 62.9235 382.38 63.1187 382.498C64.0039 383.045 64.8827 383.592 65.7679 384.138Z" fill="white"/>
<path d="M101.725 384.339L100.001 384.33C99.6119 383.786 99.2297 383.242 98.8408 382.698C89.7026 369.893 80.5663 357.088 71.432 344.284C56.4734 323.32 41.5192 302.357 26.5696 281.394C26.481 281.281 26.4151 281.152 26.3756 281.014C26.2477 280.55 26.5889 280.278 27.0262 280.326C27.2106 280.352 27.3872 280.417 27.5444 280.517C27.7015 280.617 27.8355 280.75 27.9374 280.905C36.324 292.662 44.7084 304.413 53.0908 316.161C67.9715 337.019 82.8501 357.876 97.7266 378.73C98.6728 380.053 99.6191 381.384 100.565 382.707C100.954 383.251 101.343 383.795 101.725 384.339Z" fill="white"/>
<path d="M140.143 374.332C140.055 377.236 139.863 380.094 139.612 382.925C139.563 383.467 139.514 384.008 139.466 384.55L137.656 384.54C137.712 383.998 137.767 383.457 137.816 382.915C138.198 378.825 138.469 374.688 138.506 370.44C138.554 358.66 137.405 346.905 135.077 335.358C132.602 322.924 129.049 310.728 124.457 298.91C119.638 286.446 113.827 274.387 107.082 262.85C106.954 262.661 106.898 262.435 106.922 262.209C106.997 261.694 107.683 261.541 108.196 262.033C108.298 262.13 108.385 262.24 108.456 262.361C109.29 263.795 110.11 265.234 110.914 266.676C117.411 278.278 122.972 290.378 127.544 302.863C131.9 314.72 135.212 326.934 137.445 339.365C139.537 350.898 140.441 362.615 140.143 374.332V374.332Z" fill="white"/>
<path d="M554.719 297.915C554.719 290.925 528.393 285.26 495.918 285.26C463.443 285.26 437.117 290.925 437.117 297.915C437.117 302.394 447.941 306.327 464.256 308.576V377.913C464.256 379.471 464.876 380.966 465.978 382.068C467.081 383.17 468.577 383.789 470.136 383.789C471.696 383.789 473.191 383.17 474.294 382.068C475.397 380.966 476.016 379.471 476.016 377.913V309.825C482.233 310.306 488.931 310.57 495.918 310.57C502.904 310.57 509.603 310.306 515.82 309.825V377.913C515.82 379.471 516.439 380.966 517.542 382.068C518.645 383.17 520.14 383.789 521.7 383.789C523.259 383.789 524.755 383.17 525.858 382.068C526.96 380.966 527.58 379.471 527.58 377.913V308.576C543.895 306.327 554.719 302.394 554.719 297.915Z" fill="#CCCCCC"/>
<path d="M502.42 182.082C516.409 182.082 527.749 170.75 527.749 156.772C527.749 142.793 516.409 131.462 502.42 131.462C488.431 131.462 477.09 142.793 477.09 156.772C477.09 170.75 488.431 182.082 502.42 182.082Z" fill="#2F2E41"/>
<path d="M439.385 373.324H428.294L423.018 330.579H439.387L439.385 373.324Z" fill="#A0616A"/>
<path d="M420.373 370.157H441.762V383.614H406.906C406.906 381.847 407.254 380.097 407.931 378.465C408.608 376.832 409.6 375.348 410.85 374.099C412.101 372.849 413.585 371.858 415.219 371.182C416.853 370.506 418.604 370.157 420.373 370.157V370.157Z" fill="#2F2E41"/>
<path d="M422.073 367.14L411.491 363.821L419.263 321.458L434.881 326.355L422.073 367.14Z" fill="#A0616A"/>
<path d="M404.881 358.43L425.289 364.829L421.257 377.669L388 367.24C388.529 365.554 389.386 363.989 390.521 362.633C391.656 361.278 393.047 360.159 394.615 359.341C396.182 358.523 397.896 358.022 399.657 357.865C401.419 357.709 403.194 357.901 404.881 358.43Z" fill="#2F2E41"/>
<path d="M425.681 350.084C425.195 350.084 424.713 349.997 424.259 349.826L416.1 346.769C415.184 346.422 414.423 345.759 413.956 344.899C413.488 344.039 413.346 343.039 413.554 342.083C415.608 332.854 422.609 301.432 426.442 284.579C430.989 264.588 497.313 260.874 500.134 260.725L500.366 260.713L507.827 270.082C510.523 278.741 509.669 285.494 505.287 290.156C492.503 303.758 454.332 295.318 449.781 294.25L429.492 347.465C429.197 348.236 428.674 348.899 427.994 349.366C427.313 349.834 426.507 350.084 425.681 350.084V350.084Z" fill="#2F2E41"/>
<path d="M437.441 356.412C436.955 356.412 436.473 356.324 436.019 356.153L427.86 353.096C426.944 352.75 426.183 352.086 425.716 351.226C425.248 350.366 425.106 349.367 425.314 348.411C427.368 339.181 434.369 307.76 438.203 290.907C442.749 270.916 509.073 267.201 511.894 267.053L512.126 267.041L519.587 276.409C522.283 285.068 521.429 291.822 517.047 296.484C504.263 310.084 466.092 301.645 461.541 300.577L441.252 353.793C440.957 354.563 440.434 355.226 439.754 355.694C439.073 356.161 438.267 356.412 437.441 356.412V356.412Z" fill="#2F2E41"/>
<path d="M413.835 226.227C414.135 226.628 414.402 227.051 414.635 227.494L459.252 232.191L465.674 223.392L480.23 231.342L467.616 252.694L412.897 238.753C411.517 240.098 409.759 240.991 407.858 241.313C405.958 241.636 404.004 241.372 402.256 240.558C400.509 239.744 399.051 238.417 398.077 236.755C397.102 235.093 396.657 233.173 396.801 231.252C396.945 229.331 397.671 227.499 398.882 226C400.093 224.501 401.732 223.406 403.581 222.86C405.43 222.315 407.402 222.345 409.233 222.946C411.065 223.548 412.67 224.692 413.835 226.227L413.835 226.227Z" fill="#A0616A"/>
<path d="M517.517 279.995C516.872 279.993 516.236 279.838 515.663 279.542C506.741 275.009 489.369 267.159 473.259 265.516C472.708 265.462 472.174 265.293 471.691 265.021C471.209 264.748 470.789 264.378 470.459 263.934C470.121 263.485 469.881 262.972 469.751 262.426C469.621 261.88 469.605 261.313 469.704 260.761C471.158 252.72 474.493 232.244 474.063 215.834C473.937 210.788 475.532 205.85 478.587 201.83C481.642 197.811 485.975 194.949 490.873 193.717V193.717C493.822 192.939 496.817 192.349 499.84 191.95C503.315 191.51 506.845 191.89 510.147 193.059C513.449 194.227 516.431 196.152 518.855 198.679C521.278 201.207 523.076 204.266 524.103 207.612C525.13 210.958 525.359 214.499 524.771 217.949C521.898 234.955 519.002 258.707 521.519 275.288C521.635 276.031 521.542 276.792 521.252 277.486C520.962 278.179 520.485 278.779 519.874 279.219C519.19 279.72 518.365 279.992 517.517 279.995Z" fill="#4AB8B9"/>
<path d="M474.889 236.74C474.333 236.739 473.783 236.625 473.273 236.403L461.65 231.376C460.66 230.946 459.882 230.142 459.484 229.139C459.087 228.136 459.104 227.017 459.532 226.027L468.516 205.289C469.058 204.035 469.842 202.901 470.823 201.95C471.804 200.999 472.963 200.251 474.234 199.748C475.504 199.245 476.862 198.997 478.228 199.018C479.595 199.04 480.943 199.33 482.198 199.872C483.452 200.415 484.587 201.199 485.538 202.18C486.489 203.161 487.237 204.319 487.739 205.589C488.242 206.859 488.489 208.215 488.467 209.581C488.445 210.946 488.154 212.294 487.61 213.547L478.626 234.285C478.31 235.014 477.788 235.634 477.124 236.07C476.46 236.506 475.683 236.739 474.889 236.74V236.74Z" fill="#4AB8B9"/>
<path d="M501.494 184.895C513.765 184.895 523.712 174.955 523.712 162.694C523.712 150.432 513.765 140.492 501.494 140.492C489.223 140.492 479.275 150.432 479.275 162.694C479.275 174.955 489.223 184.895 501.494 184.895Z" fill="#A0616A"/>
<path d="M478.875 151.786C489.4 158.205 501.264 162.112 513.546 163.201L509.892 158.825C512.553 159.809 515.353 160.364 518.188 160.472C521.019 160.428 523.986 159.338 525.593 157.008C526.31 155.85 526.736 154.535 526.834 153.177C526.933 151.819 526.701 150.457 526.159 149.207C525.045 146.715 523.312 144.549 521.123 142.916C517.245 139.85 512.667 137.79 507.799 136.921C502.93 136.052 497.922 136.399 493.221 137.933C489.996 138.896 487.108 140.747 484.887 143.275C482.781 145.871 478.726 148.184 479.804 151.348L478.875 151.786Z" fill="#2F2E41"/>
<path d="M505.23 133.869C498.222 126.768 489.742 121.288 480.386 117.816C474.38 115.593 467.844 114.219 461.565 115.482C455.287 116.744 449.349 121.084 447.597 127.24C446.165 132.273 447.644 137.693 449.867 142.431C452.09 147.169 455.057 151.563 456.855 156.478C458.689 161.493 459.24 166.886 458.459 172.168C457.678 177.451 455.589 182.454 452.382 186.725C449.175 190.996 444.951 194.399 440.094 196.624C435.237 198.85 429.901 199.829 424.569 199.471C430.738 200.298 436.425 203.195 442.455 204.736C448.484 206.278 455.601 206.174 460.082 201.857C464.823 197.29 464.918 189.865 464.689 183.288C464.348 173.512 464.008 163.736 463.667 153.96C463.493 148.974 463.345 143.829 465.144 139.176C466.943 134.522 471.22 130.448 476.212 130.49C479.995 130.522 483.344 132.812 486.379 135.071C489.413 137.33 492.625 139.74 496.393 140.076C500.162 140.412 504.465 137.625 504.183 133.854" fill="#2F2E41"/>
<path d="M464.139 274.292C462.667 274.29 461.213 273.962 459.883 273.332C458.553 272.701 457.379 271.784 456.447 270.645C455.514 269.507 454.846 268.176 454.49 266.748C454.135 265.321 454.1 263.832 454.39 262.39C454.679 260.947 455.285 259.587 456.164 258.407C457.043 257.226 458.172 256.256 459.472 255.564C460.771 254.873 462.208 254.478 463.679 254.408C465.15 254.339 466.617 254.596 467.976 255.161H467.977C468.386 255.334 468.782 255.535 469.163 255.762L509.637 237.605L510.774 226.636L528.22 226.17L528.105 244.431C528.083 246.546 527.38 248.598 526.099 250.282C524.818 251.966 523.027 253.193 520.993 253.78L473.661 267.242C473.569 267.555 473.461 267.862 473.337 268.163C472.577 269.976 471.299 271.524 469.663 272.614C468.027 273.705 466.106 274.288 464.139 274.292V274.292Z" fill="#A0616A"/>
<path d="M526.743 235.121C526.246 235.372 525.704 235.519 525.149 235.552L512.508 236.329C511.431 236.393 510.372 236.029 509.563 235.314C508.755 234.6 508.263 233.595 508.195 232.518L506.807 209.963C506.721 208.599 506.905 207.231 507.348 205.939C507.791 204.646 508.485 203.453 509.39 202.428C510.295 201.404 511.393 200.567 512.622 199.967C513.851 199.367 515.186 199.015 516.551 198.931C517.916 198.848 519.284 199.033 520.577 199.478C521.87 199.923 523.063 200.619 524.087 201.525C525.111 202.431 525.946 203.53 526.544 204.758C527.142 205.987 527.492 207.322 527.574 208.686L528.962 231.242C529.01 232.034 528.826 232.823 528.431 233.512C528.037 234.201 527.45 234.761 526.742 235.121L526.743 235.121Z" fill="#4AB8B9"/>
<path d="M499.269 276.572H427.804C426.964 276.572 426.159 276.239 425.565 275.646C424.971 275.052 424.638 274.248 424.638 273.409C424.638 272.57 424.971 271.765 425.565 271.172C426.159 270.578 426.964 270.245 427.804 270.245H499.269C500.109 270.245 500.914 270.578 501.508 271.172C502.102 271.765 502.435 272.57 502.435 273.409V273.409C502.435 274.248 502.102 275.052 501.508 275.646C500.914 276.239 500.109 276.572 499.269 276.572V276.572Z" fill="#3F3D56"/>
<path d="M396.594 270.697V226.404C396.596 224.846 397.216 223.353 398.319 222.251C399.421 221.15 400.915 220.53 402.474 220.528H482.986C484.545 220.53 486.04 221.15 487.142 222.251C488.244 223.353 488.864 224.846 488.866 226.404V270.697C488.864 272.255 488.244 273.748 487.142 274.85C486.04 275.951 484.545 276.571 482.986 276.572H402.474C400.915 276.571 399.421 275.951 398.319 274.85C397.216 273.748 396.596 272.255 396.594 270.697V270.697Z" fill="#3F3D56"/>
<path d="M442.73 253.974C445.728 253.974 448.158 251.546 448.158 248.55C448.158 245.555 445.728 243.127 442.73 243.127C439.732 243.127 437.302 245.555 437.302 248.55C437.302 251.546 439.732 253.974 442.73 253.974Z" fill="white"/>
<path d="M250.383 198.267C249.65 197.158 248.682 196.223 247.549 195.528C246.415 194.834 245.143 194.396 243.821 194.245C242.5 194.095 241.162 194.236 239.901 194.659C238.64 195.081 237.487 195.774 236.523 196.69L207.798 181.875L209.583 198.565L236.588 210.076C238.235 211.591 240.381 212.451 242.62 212.491C244.858 212.531 247.034 211.749 248.734 210.294C250.435 208.838 251.542 206.81 251.846 204.593C252.149 202.377 251.629 200.126 250.383 198.267H250.383Z" fill="#FFB8B8"/>
<path d="M224.854 204.985C224.334 205.223 223.77 205.349 223.198 205.356C222.626 205.362 222.06 205.247 221.535 205.02L194.249 193.193C184.92 189.151 177.377 181.859 173.025 172.676L158.681 142.42C157.622 141.061 156.842 139.507 156.385 137.846C155.928 136.186 155.803 134.452 156.017 132.743C156.231 131.034 156.78 129.384 157.633 127.888C158.486 126.391 159.625 125.077 160.987 124.021C162.348 122.965 163.904 122.187 165.567 121.732C167.229 121.278 168.965 121.155 170.675 121.371C172.384 121.587 174.035 122.138 175.532 122.992C177.028 123.846 178.342 124.986 179.397 126.348L204.611 173.093L227.894 190.667C228.56 191.173 229.055 191.87 229.312 192.666C229.568 193.462 229.574 194.317 229.329 195.116L227.044 202.491C226.798 203.282 226.317 203.98 225.665 204.49C225.415 204.687 225.143 204.853 224.854 204.985V204.985Z" fill="#CCCCCC"/>
<path d="M158.049 106.838C170.32 106.838 180.268 96.8979 180.268 84.6363C180.268 72.3747 170.32 62.4348 158.049 62.4348C145.778 62.4348 135.831 72.3747 135.831 84.6363C135.831 96.8979 145.778 106.838 158.049 106.838Z" fill="#FFB8B8"/>
<path d="M167.049 375.881H178.139L183.415 333.136H167.046L167.049 375.881Z" fill="#FFB8B8"/>
<path d="M199.528 386.17L164.672 386.172L164.672 372.715L186.061 372.714C189.632 372.714 193.058 374.131 195.583 376.655C198.109 379.178 199.528 382.601 199.528 386.17V386.17L199.528 386.17Z" fill="#2F2E41"/>
<path d="M130.864 375.881H141.954L147.231 333.136H130.861L130.864 375.881Z" fill="#FFB8B8"/>
<path d="M163.343 386.17L128.487 386.172L128.487 372.715L149.876 372.714C153.447 372.714 156.873 374.131 159.398 376.655C161.924 379.178 163.343 382.601 163.343 386.17V386.17L163.343 386.17Z" fill="#2F2E41"/>
<path d="M126.991 363.646C126.609 363.21 126.325 362.697 126.157 362.143C125.989 361.588 125.942 361.004 126.019 360.429L145.436 214.909L193.678 223.095L198.827 220.008L185.513 358.079C185.402 359.011 184.973 359.877 184.298 360.529C183.623 361.182 182.744 361.582 181.808 361.662L167.2 362.879C166.619 362.927 166.035 362.851 165.486 362.654C164.938 362.457 164.438 362.145 164.021 361.739C163.603 361.332 163.278 360.841 163.067 360.298C162.856 359.755 162.764 359.173 162.798 358.592L166.58 292.838C166.586 292.726 166.551 292.616 166.481 292.529C166.411 292.441 166.311 292.383 166.201 292.365C166.09 292.347 165.977 292.37 165.883 292.431C165.789 292.492 165.721 292.585 165.691 292.693L146.981 362.025C146.747 362.888 146.235 363.65 145.525 364.194C144.815 364.738 143.945 365.033 143.051 365.034H130.054C129.474 365.034 128.9 364.911 128.372 364.671C127.844 364.432 127.373 364.082 126.991 363.646Z" fill="#2F2E41"/>
<path d="M160.401 225.095C159.847 224.594 159.136 224.302 158.389 224.271C157.643 224.24 156.909 224.471 156.316 224.924L146.671 232.421C146.146 232.83 145.529 233.104 144.873 233.219C144.217 233.334 143.543 233.287 142.91 233.081C142.277 232.875 141.705 232.517 141.243 232.038C140.78 231.56 140.443 230.975 140.259 230.336C135.528 213.78 124.81 172.106 127.45 142.775C128.947 126.149 143.315 113.513 159.479 114.574C170.529 115.31 177.799 121.68 181.086 133.506C189.158 162.542 198.029 215.804 199.725 226.187C199.859 226.992 199.746 227.819 199.401 228.56C199.056 229.3 198.495 229.919 197.792 230.335C193.228 233.072 188.015 234.538 182.692 234.581C176.252 234.581 168.53 232.34 160.401 225.095Z" fill="#CCCCCC"/>
<path d="M164.04 235.424C164.148 234.099 163.964 232.767 163.501 231.521C163.038 230.276 162.308 229.146 161.361 228.213C160.414 227.28 159.274 226.566 158.021 226.121C156.768 225.676 155.432 225.51 154.109 225.637L140.655 196.265L131.752 210.5L145.893 236.209C146.253 238.417 147.411 240.417 149.147 241.829C150.884 243.241 153.079 243.968 155.316 243.871C157.553 243.774 159.676 242.861 161.284 241.304C162.892 239.747 163.873 237.655 164.04 235.424H164.04Z" fill="#FFB8B8"/>
<path d="M139.803 224.968C139.247 224.835 138.725 224.586 138.272 224.238C137.818 223.89 137.443 223.451 137.17 222.949L123.004 196.817C118.16 187.883 116.728 177.494 118.975 167.584L126.373 134.932C126.38 133.21 126.726 131.506 127.392 129.918C128.058 128.33 129.031 126.888 130.255 125.676C131.479 124.464 132.93 123.505 134.525 122.853C136.12 122.201 137.828 121.87 139.551 121.879C141.274 121.887 142.979 122.235 144.568 122.902C146.156 123.569 147.598 124.543 148.81 125.767C150.022 126.991 150.98 128.442 151.631 130.036C152.281 131.631 152.611 133.338 152.601 135.06L143.571 187.391L151.038 215.576C151.25 216.385 151.209 217.239 150.919 218.023C150.63 218.808 150.106 219.484 149.42 219.962L143.067 224.356C142.385 224.827 141.576 225.079 140.747 225.079C140.429 225.079 140.113 225.042 139.803 224.968V224.968Z" fill="#CCCCCC"/>
<path opacity="0.2" d="M150.798 157.129L142.657 191.479L154.417 220.405L146.275 192.383L150.798 157.129Z" fill="black"/>
<path d="M145.37 102.893C143.394 102.93 141.43 102.575 139.591 101.848C138.783 101.537 137.943 101.281 137.136 100.969C130.006 98.2165 125.309 90.6289 125.141 82.993C124.972 75.3571 128.93 67.9457 134.806 63.0614C140.683 58.1771 148.294 55.6695 155.916 55.0896C164.125 54.465 173.37 56.5453 177.957 63.3771C179.178 65.1956 180.032 67.4019 179.309 69.5976C179.092 70.2602 178.705 70.8543 178.186 71.3205C176.137 73.1418 174.095 71.7723 172.007 71.6513C169.136 71.485 166.558 73.8068 165.631 76.5267C164.704 79.2467 165.112 82.2411 165.86 85.0153C166.43 86.6847 166.79 88.4186 166.93 90.1769C166.991 91.0585 166.825 91.941 166.448 92.7406C166.071 93.5402 165.497 94.2305 164.778 94.746C162.985 95.8294 160.629 95.2024 158.834 94.1207C157.039 93.039 155.488 91.535 153.55 90.739C151.611 89.943 149.006 90.1196 147.878 91.8846C147.519 92.5268 147.277 93.227 147.161 93.9533C146.149 98.5587 146.382 98.2875 145.37 102.893L145.37 102.893Z" fill="#2F2E41"/>
<path d="M338.011 178.237C337.643 177.771 337.385 177.227 337.259 176.646C337.132 176.066 337.14 175.464 337.281 174.887C340.655 160.766 340.655 146.049 337.281 131.928C337.14 131.351 337.132 130.749 337.259 130.169C337.385 129.588 337.643 129.044 338.011 128.579C338.372 128.119 338.833 127.748 339.359 127.493C339.885 127.239 340.462 127.107 341.047 127.109H377.116C378.038 127.111 378.929 127.439 379.631 128.036C380.333 128.633 380.8 129.459 380.949 130.368C383.302 145.638 383.302 161.177 380.949 176.447C380.8 177.356 380.333 178.182 379.631 178.779C378.929 179.376 378.038 179.704 377.116 179.706H341.047C340.462 179.708 339.885 179.577 339.359 179.322C338.833 179.067 338.372 178.696 338.011 178.237V178.237Z" fill="#E6E6E6"/>
<path d="M282.213 51.1271C281.845 50.6612 281.587 50.1174 281.461 49.5371C281.334 48.9568 281.342 48.3553 281.483 47.7784C284.857 33.6569 284.857 18.9402 281.483 4.81872C281.342 4.24182 281.334 3.64033 281.461 3.06003C281.587 2.47973 281.845 1.93593 282.213 1.47003C282.574 1.01041 283.035 0.639105 283.561 0.38436C284.087 0.129616 284.664 -0.00183343 285.248 1.93166e-05H321.318C322.24 0.0018755 323.131 0.330467 323.833 0.927321C324.535 1.52417 325.002 2.35055 325.151 3.25934C327.504 18.5289 327.504 34.0683 325.151 49.3378C325.002 50.2466 324.535 51.073 323.833 51.6698C323.131 52.2667 322.24 52.5953 321.318 52.5971H285.248C284.664 52.599 284.087 52.4675 283.561 52.2128C283.035 51.958 282.574 51.5867 282.213 51.1271Z" fill="#E6E6E6"/>
<path d="M370.968 93.6463C368.615 78.3768 368.615 62.8374 370.968 47.5679C371.117 46.6591 371.584 45.8326 372.286 45.2357C372.987 44.6389 373.879 44.3103 374.8 44.3086H410.87C411.454 44.3067 412.032 44.4381 412.558 44.6929C413.084 44.9476 413.544 45.319 413.905 45.7786C414.274 46.2445 414.531 46.7883 414.658 47.3685C414.784 47.9488 414.777 48.5503 414.636 49.1273C411.261 63.2487 411.261 77.9655 414.635 92.087C414.777 92.6638 414.784 93.2653 414.658 93.8456C414.531 94.4259 414.274 94.9698 413.905 95.4356C413.544 95.8953 413.084 96.2666 412.558 96.5213C412.032 96.7761 411.454 96.9075 410.87 96.9057H374.8C373.879 96.9039 372.987 96.5754 372.286 95.9785C371.584 95.3816 371.117 94.5552 370.968 93.6463V93.6463Z" fill="#4AB8B9"/>
<path d="M219.965 92.0374C217.612 76.7678 217.612 61.2284 219.965 45.9589C220.114 45.0501 220.581 44.2238 221.283 43.6269C221.985 43.0301 222.876 42.7015 223.798 42.6996H259.867C260.452 42.6977 261.029 42.8292 261.555 43.0839C262.081 43.3387 262.542 43.71 262.903 44.1696C263.271 44.6355 263.529 45.1793 263.655 45.7596C263.782 46.3399 263.774 46.9414 263.633 47.5183C260.259 61.6398 260.259 76.3565 263.633 90.478C263.774 91.0549 263.782 91.6564 263.655 92.2367C263.529 92.817 263.271 93.3608 262.903 93.8267C262.542 94.2863 262.081 94.6576 261.555 94.9124C261.029 95.1671 260.452 95.2985 259.867 95.2967H223.798C222.876 95.2948 221.985 94.9662 221.283 94.3694C220.581 93.7725 220.114 92.9462 219.965 92.0374Z" fill="#FCC63E"/>
<path d="M228.886 198.405C228.511 197.932 228.25 197.379 228.121 196.789C227.992 196.199 228 195.587 228.144 195.001C231.573 180.647 231.573 165.689 228.143 151.335C228 150.749 227.992 150.137 228.121 149.548C228.25 148.958 228.511 148.405 228.886 147.931C229.253 147.464 229.721 147.087 230.256 146.828C230.79 146.569 231.377 146.436 231.971 146.438H268.633C269.57 146.439 270.476 146.773 271.189 147.38C271.903 147.987 272.377 148.827 272.529 149.751C274.921 165.271 274.921 181.066 272.529 196.586C272.377 197.51 271.903 198.35 271.189 198.956C270.476 199.563 269.57 199.897 268.633 199.899H231.971C231.377 199.901 230.79 199.767 230.256 199.508C229.721 199.249 229.253 198.872 228.886 198.405V198.405Z" fill="#4AB8B9"/>
<path d="M261.559 166.163H242.245C241.526 166.162 240.836 165.876 240.327 165.368C239.818 164.86 239.532 164.17 239.531 163.451V162.3C239.532 161.581 239.818 160.891 240.327 160.383C240.836 159.875 241.526 159.589 242.245 159.588H261.559C262.278 159.589 262.968 159.875 263.477 160.383C263.985 160.891 264.272 161.581 264.272 162.3V163.451C264.272 164.17 263.985 164.86 263.477 165.368C262.968 165.876 262.278 166.162 261.559 166.163V166.163Z" fill="white"/>
<path d="M261.559 177.505H242.245C241.526 177.504 240.836 177.218 240.327 176.71C239.818 176.202 239.532 175.512 239.531 174.793V173.642C239.532 172.923 239.818 172.233 240.327 171.725C240.836 171.217 241.526 170.931 242.245 170.93H261.559C262.278 170.931 262.968 171.217 263.477 171.725C263.985 172.233 264.272 172.923 264.272 173.642V174.793C264.272 175.512 263.985 176.202 263.477 176.71C262.968 177.218 262.278 177.504 261.559 177.505V177.505Z" fill="white"/>
<path d="M248.768 65.0057H229.84C229.12 65.005 228.43 64.719 227.921 64.2106C227.413 63.7022 227.127 63.0129 227.126 62.2939V61.2346C227.127 60.5157 227.413 59.8264 227.921 59.318C228.43 58.8096 229.12 58.5236 229.84 58.5228H248.768C249.487 58.5236 250.177 58.8096 250.686 59.318C251.195 59.8264 251.481 60.5157 251.482 61.2346V62.2939C251.481 63.0129 251.195 63.7022 250.686 64.2106C250.177 64.719 249.487 65.005 248.768 65.0057V65.0057Z" fill="white"/>
<path d="M369.697 144.669H350.77C350.05 144.668 349.36 144.382 348.851 143.874C348.343 143.366 348.056 142.676 348.056 141.957V140.897C348.056 140.179 348.343 139.489 348.851 138.981C349.36 138.472 350.05 138.186 350.77 138.186H369.697C370.417 138.186 371.107 138.472 371.615 138.981C372.124 139.489 372.41 140.179 372.411 140.897V141.957C372.41 142.676 372.124 143.366 371.615 143.874C371.107 144.382 370.417 144.668 369.697 144.669Z" fill="white"/>
<path d="M369.697 158.059H350.77C350.05 158.059 349.36 157.773 348.851 157.264C348.343 156.756 348.056 156.067 348.056 155.348V154.288C348.056 153.569 348.343 152.88 348.851 152.371C349.36 151.863 350.05 151.577 350.77 151.576H369.697C370.417 151.577 371.107 151.863 371.615 152.371C372.124 152.88 372.41 153.569 372.411 154.288V155.348C372.41 156.067 372.124 156.756 371.615 157.264C371.107 157.773 370.417 158.059 369.697 158.059Z" fill="white"/>
<path d="M369.697 171.45H350.77C350.05 171.449 349.36 171.163 348.851 170.655C348.343 170.146 348.056 169.457 348.056 168.738V167.678C348.056 166.959 348.343 166.27 348.851 165.762C349.36 165.253 350.05 164.967 350.77 164.967H369.697C370.417 164.967 371.107 165.253 371.615 165.762C372.124 166.27 372.41 166.959 372.411 167.678V168.738C372.41 169.457 372.124 170.146 371.615 170.655C371.107 171.163 370.417 171.449 369.697 171.45V171.45Z" fill="white"/>
<path d="M248.768 76.1646H229.84C229.12 76.1638 228.43 75.8778 227.921 75.3694C227.413 74.861 227.127 74.1717 227.126 73.4528V72.393C227.127 71.674 227.413 70.9847 227.921 70.4764C228.43 69.968 229.12 69.682 229.84 69.6812H248.768C249.487 69.682 250.177 69.968 250.686 70.4764C251.195 70.9847 251.481 71.674 251.482 72.393V73.4528C251.481 74.1717 251.195 74.861 250.686 75.3694C250.177 75.8778 249.487 76.1638 248.768 76.1646Z" fill="white"/>
<path d="M314.061 19.7917H295.133C294.413 19.7909 293.723 19.505 293.215 18.9966C292.706 18.4882 292.42 17.7989 292.419 17.0799V16.0202C292.42 15.3012 292.706 14.6119 293.215 14.1035C293.723 13.5951 294.413 13.3091 295.133 13.3083H314.061C314.78 13.3091 315.47 13.5951 315.979 14.1035C316.488 14.6119 316.774 15.3012 316.774 16.0202V17.0799C316.774 17.7989 316.488 18.4882 315.979 18.9966C315.47 19.505 314.78 19.7909 314.061 19.7917V19.7917Z" fill="white"/>
<path d="M400.429 67.7308H381.501C380.781 67.73 380.091 67.444 379.583 66.9357C379.074 66.4273 378.788 65.738 378.787 65.019V63.9592C378.788 63.2403 379.074 62.551 379.583 62.0426C380.091 61.5342 380.781 61.2482 381.501 61.2474H400.429C401.148 61.2482 401.838 61.5342 402.347 62.0426C402.856 62.551 403.142 63.2403 403.143 63.9592V65.019C403.142 65.738 402.856 66.4273 402.347 66.9357C401.838 67.444 401.148 67.73 400.429 67.7308Z" fill="white"/>
</g>
<defs>
<clipPath id="clip0">
<rect width="555" height="387" fill="white"/>
</clipPath>
</defs>
</svg>
