<svg width="691" height="669" viewBox="0 0 691 669" fill="none" xmlns="http://www.w3.org/2000/svg">
<path d="M643.049 130.285C669.769 169.27 663.857 219.772 663.857 219.772C663.857 219.772 614.622 207.067 587.902 168.082C561.182 129.097 567.095 78.5945 567.095 78.5945C567.095 78.5945 616.329 91.2994 643.049 130.285Z" fill="#FCC63E"/>
<path d="M623.824 137.728C626.951 184.888 662.841 220.907 662.841 220.907C662.841 220.907 693.661 180.465 690.535 133.306C687.408 86.1459 651.518 50.127 651.518 50.127C651.518 50.127 620.697 90.5688 623.824 137.728Z" fill="#4AB8B9"/>
<path d="M317.046 0.981953L679.82 183.371C682.837 184.888 685.339 187.261 687.013 190.193C688.686 193.124 689.458 196.485 689.231 199.854L668.153 512.058C668.059 513.458 667.619 514.813 666.873 516.002C666.127 517.191 665.099 518.177 663.879 518.871C662.66 519.566 661.287 519.948 659.884 519.982C658.481 520.017 657.091 519.704 655.839 519.071L284.792 329.707L303.841 8.5927C303.93 7.0843 304.393 5.62175 305.187 4.33639C305.982 3.05104 307.083 1.98314 308.392 1.2286C309.701 0.474066 311.177 0.0565207 312.688 0.0134697C314.198 -0.0295812 315.696 0.303209 317.046 0.981953V0.981953Z" fill="#D0CDE1"/>
<path d="M321.221 7.34406L675.085 185.254C678.027 186.733 680.468 189.047 682.101 191.907C683.733 194.767 684.486 198.045 684.264 201.331L663.705 505.867C663.612 507.233 663.183 508.554 662.456 509.714C661.728 510.874 660.725 511.835 659.536 512.513C658.346 513.19 657.007 513.563 655.638 513.597C654.27 513.631 652.914 513.325 651.692 512.707L289.759 327.995L308.34 14.7679C308.428 13.2965 308.879 11.8699 309.654 10.6161C310.429 9.36232 311.503 8.32066 312.78 7.58465C314.057 6.84865 315.497 6.44136 316.97 6.39937C318.444 6.35737 319.904 6.68199 321.221 7.34406V7.34406Z" fill="#3F3D56"/>
<path d="M336.729 30.9746L657.496 192.244C660.163 193.585 662.376 195.683 663.856 198.276C665.336 200.868 666.018 203.84 665.817 206.818L647.18 482.871C647.097 484.109 646.708 485.307 646.048 486.358C645.389 487.409 644.48 488.281 643.401 488.895C642.323 489.509 641.109 489.847 639.869 489.878C638.628 489.908 637.399 489.631 636.292 489.072L308.21 321.635L325.053 37.7041C325.132 36.3703 325.541 35.0771 326.244 33.9406C326.946 32.8041 327.92 31.8599 329.078 31.1927C330.235 30.5255 331.54 30.1563 332.876 30.1183C334.211 30.0802 335.535 30.3745 336.729 30.9746V30.9746Z" fill="white"/>
<path d="M5.74587 483.331L368.984 666.263C372.364 667.962 376.096 668.845 379.88 668.84C383.664 668.835 387.394 667.943 390.77 666.234L659.483 529.827C662.634 526.676 662.194 522.006 661.186 518.501C660.697 516.803 660.031 515.162 659.2 513.604L622.582 494.344L314.71 340.735L296.316 330.97C291.447 328.392 286.024 327.033 280.514 327.011C275.004 326.988 269.571 328.303 264.68 330.843L5.63222 465.405C3.9841 466.257 2.60384 467.549 1.64415 469.137C0.68447 470.725 0.182774 472.547 0.194538 474.403C0.206303 476.258 0.731092 478.074 1.71083 479.65C2.69058 481.225 4.08707 482.499 5.74587 483.331V483.331Z" fill="#D0CDE1"/>
<path opacity="0.1" d="M5.74577 483.331L368.984 666.263C372.364 667.963 376.096 668.845 379.88 668.841C383.664 668.836 387.394 667.943 390.77 666.234L659.483 529.827C662.634 526.676 662.194 522.006 661.186 518.501L393.276 657.754C390.007 659.453 386.382 660.356 382.698 660.387C379.014 660.419 375.374 659.579 372.076 657.936L0.324015 472.729C-0.0254831 474.843 0.312553 477.015 1.28846 478.923C2.26437 480.831 3.82666 482.376 5.74577 483.331V483.331Z" fill="black"/>
<path opacity="0.1" d="M350.517 538.141L232.881 478.696C230.513 477.499 227.892 476.89 225.238 476.92C222.585 476.95 219.978 477.619 217.637 478.869L149.397 515.327C148.608 515.748 147.951 516.378 147.495 517.147C147.04 517.916 146.805 518.796 146.816 519.69C146.826 520.584 147.082 521.458 147.555 522.216C148.028 522.975 148.701 523.588 149.499 523.991L269.44 584.474C271.432 585.478 273.64 585.977 275.87 585.926C278.1 585.874 280.283 585.275 282.226 584.18L350.739 545.581C351.407 545.205 351.959 544.653 352.336 543.986C352.713 543.318 352.9 542.56 352.877 541.794C352.854 541.028 352.622 540.282 352.206 539.638C351.79 538.995 351.206 538.477 350.517 538.141V538.141Z" fill="black"/>
<path opacity="0.1" d="M627.565 528.199L500.979 595.448C499.523 596.222 497.901 596.635 496.252 596.651C494.603 596.668 492.974 596.288 491.502 595.544L133.842 414.674C132.834 414.164 131.988 413.384 131.398 412.421C130.809 411.457 130.499 410.349 130.504 409.22C130.509 408.09 130.828 406.985 131.426 406.027C132.024 405.068 132.876 404.296 133.888 403.795L257.503 342.612C259.366 341.69 261.418 341.213 263.497 341.221C265.575 341.228 267.624 341.719 269.48 342.654L627.51 523.046C627.985 523.285 628.385 523.651 628.666 524.102C628.948 524.554 629.1 525.074 629.105 525.606C629.111 526.138 628.97 526.661 628.699 527.118C628.427 527.576 628.035 527.95 627.565 528.199Z" fill="black"/>
<path d="M425.618 192.821L424.984 194.091L541.365 252.281L542 251.012L425.618 192.821Z" fill="#4AB8B9"/>
<path d="M425.608 209.887L424.962 211.149L541.375 270.698L542.021 269.435L425.608 209.887Z" fill="#4AB8B9"/>
<path d="M446.918 242.49L446.272 243.754L512.969 277.834L513.615 276.57L446.918 242.49Z" fill="#4AB8B9"/>
<path d="M35.2261 281.726C36.1761 281.726 36.9462 280.186 36.9462 278.286C36.9462 276.386 36.1761 274.846 35.2261 274.846C34.2762 274.846 33.5061 276.386 33.5061 278.286C33.5061 280.186 34.2762 281.726 35.2261 281.726Z" fill="#FFB8B8"/>
<path d="M85.9669 281.726C86.9168 281.726 87.6869 280.186 87.6869 278.286C87.6869 276.386 86.9168 274.846 85.9669 274.846C85.0169 274.846 84.2468 276.386 84.2468 278.286C84.2468 280.186 85.0169 281.726 85.9669 281.726Z" fill="#FFB8B8"/>
<path d="M317.28 108.551L307 133L393.768 178.545L423 93" fill="#F2F2F2"/>
<path d="M391.768 163.545L430.099 73.352L342 30L305 118L391.768 163.545Z" fill="#4AB8B9"/>
<path d="M339.918 64.4901L339.272 65.7542L405.969 99.8343L406.615 98.5702L339.918 64.4901Z" fill="white"/>
<path d="M334.918 76.4901L334.272 77.7542L400.969 111.834L401.615 110.57L334.918 76.4901Z" fill="white"/>
</svg>
